<mxfile host="Electron" modified="2024-02-25T08:50:31.567Z" agent="Mozilla/5.0 (Windows NT 10.0; Win64; x64) AppleWebKit/537.36 (KHTML, like Gecko) draw.io/23.1.5 Chrome/120.0.6099.109 Electron/28.1.0 Safari/537.36" etag="Ltmk6_73yR0_Eo7u2-2V" version="23.1.5" type="device">
  <diagram name="Страница — 1" id="uQCMhBx-n3jVV9Ox8pvu">
    <mxGraphModel dx="1771" dy="1656" grid="1" gridSize="10" guides="1" tooltips="1" connect="1" arrows="1" fold="1" page="1" pageScale="1" pageWidth="827" pageHeight="1169" math="0" shadow="0">
      <root>
        <mxCell id="0" />
        <mxCell id="1" parent="0" />
        <mxCell id="z7qtgcYWtyjk0ctPWtKN-7" style="edgeStyle=orthogonalEdgeStyle;rounded=0;orthogonalLoop=1;jettySize=auto;html=1;exitX=0.5;exitY=1;exitDx=0;exitDy=0;entryX=0.5;entryY=0;entryDx=0;entryDy=0;entryPerimeter=0;" parent="1" source="z7qtgcYWtyjk0ctPWtKN-6" target="z7qtgcYWtyjk0ctPWtKN-16" edge="1">
          <mxGeometry relative="1" as="geometry">
            <mxPoint x="380" y="120" as="targetPoint" />
          </mxGeometry>
        </mxCell>
        <mxCell id="z7qtgcYWtyjk0ctPWtKN-6" value="&lt;div&gt;void desk_rec(int n)&lt;/div&gt;&lt;div&gt;{&lt;/div&gt;" style="ellipse;whiteSpace=wrap;html=1;" parent="1" vertex="1">
          <mxGeometry x="300" y="30" width="160" height="50" as="geometry" />
        </mxCell>
        <mxCell id="z7qtgcYWtyjk0ctPWtKN-14" style="edgeStyle=orthogonalEdgeStyle;rounded=0;orthogonalLoop=1;jettySize=auto;html=1;exitX=0;exitY=0.5;exitDx=0;exitDy=0;exitPerimeter=0;entryX=0.5;entryY=0;entryDx=0;entryDy=0;entryPerimeter=0;" parent="1" source="z7qtgcYWtyjk0ctPWtKN-16" target="z7qtgcYWtyjk0ctPWtKN-21" edge="1">
          <mxGeometry relative="1" as="geometry">
            <mxPoint x="239.75" y="190" as="targetPoint" />
          </mxGeometry>
        </mxCell>
        <mxCell id="z7qtgcYWtyjk0ctPWtKN-15" style="edgeStyle=orthogonalEdgeStyle;rounded=0;orthogonalLoop=1;jettySize=auto;html=1;exitX=1;exitY=0.5;exitDx=0;exitDy=0;exitPerimeter=0;" parent="1" source="z7qtgcYWtyjk0ctPWtKN-16" edge="1">
          <mxGeometry relative="1" as="geometry">
            <mxPoint x="510" y="1480" as="targetPoint" />
            <Array as="points">
              <mxPoint x="860" y="150" />
              <mxPoint x="860" y="1480" />
              <mxPoint x="510" y="1480" />
            </Array>
          </mxGeometry>
        </mxCell>
        <mxCell id="z7qtgcYWtyjk0ctPWtKN-16" value="if (desk[1][7] == 0)" style="strokeWidth=2;html=1;shape=mxgraph.flowchart.decision;whiteSpace=wrap;" parent="1" vertex="1">
          <mxGeometry x="279.75" y="120" width="200" height="60" as="geometry" />
        </mxCell>
        <mxCell id="z7qtgcYWtyjk0ctPWtKN-17" value="1" style="text;html=1;strokeColor=none;fillColor=none;align=center;verticalAlign=middle;whiteSpace=wrap;rounded=0;" parent="1" vertex="1">
          <mxGeometry x="249.75" y="120" width="30" height="30" as="geometry" />
        </mxCell>
        <mxCell id="z7qtgcYWtyjk0ctPWtKN-18" value="0" style="text;html=1;strokeColor=none;fillColor=none;align=center;verticalAlign=middle;whiteSpace=wrap;rounded=0;" parent="1" vertex="1">
          <mxGeometry x="479.75" y="120" width="30" height="30" as="geometry" />
        </mxCell>
        <mxCell id="z7qtgcYWtyjk0ctPWtKN-19" style="edgeStyle=orthogonalEdgeStyle;rounded=0;orthogonalLoop=1;jettySize=auto;html=1;exitX=0;exitY=0.5;exitDx=0;exitDy=0;exitPerimeter=0;" parent="1" source="z7qtgcYWtyjk0ctPWtKN-21" target="z7qtgcYWtyjk0ctPWtKN-25" edge="1">
          <mxGeometry relative="1" as="geometry">
            <mxPoint x="100" y="260" as="targetPoint" />
          </mxGeometry>
        </mxCell>
        <mxCell id="z7qtgcYWtyjk0ctPWtKN-20" style="edgeStyle=orthogonalEdgeStyle;rounded=0;orthogonalLoop=1;jettySize=auto;html=1;exitX=1;exitY=0.5;exitDx=0;exitDy=0;exitPerimeter=0;entryX=0.5;entryY=0;entryDx=0;entryDy=0;" parent="1" source="z7qtgcYWtyjk0ctPWtKN-21" target="z7qtgcYWtyjk0ctPWtKN-54" edge="1">
          <mxGeometry relative="1" as="geometry">
            <mxPoint x="380" y="260" as="targetPoint" />
          </mxGeometry>
        </mxCell>
        <mxCell id="z7qtgcYWtyjk0ctPWtKN-21" value="if (n == 0)" style="strokeWidth=2;html=1;shape=mxgraph.flowchart.decision;whiteSpace=wrap;" parent="1" vertex="1">
          <mxGeometry x="140" y="190" width="200" height="60" as="geometry" />
        </mxCell>
        <mxCell id="z7qtgcYWtyjk0ctPWtKN-22" value="1" style="text;html=1;strokeColor=none;fillColor=none;align=center;verticalAlign=middle;whiteSpace=wrap;rounded=0;" parent="1" vertex="1">
          <mxGeometry x="110" y="190" width="30" height="30" as="geometry" />
        </mxCell>
        <mxCell id="z7qtgcYWtyjk0ctPWtKN-23" value="0" style="text;html=1;strokeColor=none;fillColor=none;align=center;verticalAlign=middle;whiteSpace=wrap;rounded=0;" parent="1" vertex="1">
          <mxGeometry x="340" y="190" width="30" height="30" as="geometry" />
        </mxCell>
        <mxCell id="z7qtgcYWtyjk0ctPWtKN-26" style="edgeStyle=orthogonalEdgeStyle;rounded=0;orthogonalLoop=1;jettySize=auto;html=1;exitX=0.5;exitY=1;exitDx=0;exitDy=0;entryX=0.5;entryY=0;entryDx=0;entryDy=0;entryPerimeter=0;" parent="1" source="z7qtgcYWtyjk0ctPWtKN-25" target="z7qtgcYWtyjk0ctPWtKN-35" edge="1">
          <mxGeometry relative="1" as="geometry">
            <mxPoint x="100.47619047619048" y="320" as="targetPoint" />
          </mxGeometry>
        </mxCell>
        <mxCell id="z7qtgcYWtyjk0ctPWtKN-25" value="desk_place(0);" style="shape=parallelogram;html=1;strokeWidth=2;perimeter=parallelogramPerimeter;whiteSpace=wrap;rounded=1;arcSize=12;size=0.16666666666666666;" parent="1" vertex="1">
          <mxGeometry x="20" y="250" width="160" height="40" as="geometry" />
        </mxCell>
        <mxCell id="z7qtgcYWtyjk0ctPWtKN-33" style="edgeStyle=orthogonalEdgeStyle;rounded=0;orthogonalLoop=1;jettySize=auto;html=1;exitX=0;exitY=0.5;exitDx=0;exitDy=0;exitPerimeter=0;entryX=0.5;entryY=0;entryDx=0;entryDy=0;" parent="1" source="z7qtgcYWtyjk0ctPWtKN-35" target="z7qtgcYWtyjk0ctPWtKN-38" edge="1">
          <mxGeometry relative="1" as="geometry">
            <mxPoint x="-40.28999999999999" y="390" as="targetPoint" />
          </mxGeometry>
        </mxCell>
        <mxCell id="z7qtgcYWtyjk0ctPWtKN-34" style="edgeStyle=orthogonalEdgeStyle;rounded=0;orthogonalLoop=1;jettySize=auto;html=1;exitX=1;exitY=0.5;exitDx=0;exitDy=0;exitPerimeter=0;" parent="1" source="z7qtgcYWtyjk0ctPWtKN-35" edge="1">
          <mxGeometry relative="1" as="geometry">
            <mxPoint x="100" y="780" as="targetPoint" />
            <Array as="points">
              <mxPoint x="220" y="350" />
              <mxPoint x="220" y="780" />
            </Array>
          </mxGeometry>
        </mxCell>
        <mxCell id="z7qtgcYWtyjk0ctPWtKN-35" value="if (show_desk)" style="strokeWidth=2;html=1;shape=mxgraph.flowchart.decision;whiteSpace=wrap;" parent="1" vertex="1">
          <mxGeometry x="-0.2899999999999949" y="320" width="200" height="60" as="geometry" />
        </mxCell>
        <mxCell id="z7qtgcYWtyjk0ctPWtKN-36" value="1" style="text;html=1;strokeColor=none;fillColor=none;align=center;verticalAlign=middle;whiteSpace=wrap;rounded=0;" parent="1" vertex="1">
          <mxGeometry x="-30.289999999999996" y="320" width="30" height="30" as="geometry" />
        </mxCell>
        <mxCell id="z7qtgcYWtyjk0ctPWtKN-37" value="0" style="text;html=1;strokeColor=none;fillColor=none;align=center;verticalAlign=middle;whiteSpace=wrap;rounded=0;" parent="1" vertex="1">
          <mxGeometry x="199.70999999999998" y="310" width="30" height="30" as="geometry" />
        </mxCell>
        <mxCell id="z7qtgcYWtyjk0ctPWtKN-39" style="edgeStyle=orthogonalEdgeStyle;rounded=0;orthogonalLoop=1;jettySize=auto;html=1;exitX=0.5;exitY=1;exitDx=0;exitDy=0;" parent="1" source="z7qtgcYWtyjk0ctPWtKN-38" target="JoiuVAvioGvqHBmtf9we-1" edge="1">
          <mxGeometry relative="1" as="geometry">
            <mxPoint x="-40" y="450" as="targetPoint" />
          </mxGeometry>
        </mxCell>
        <mxCell id="z7qtgcYWtyjk0ctPWtKN-38" value="desk_print(0, -1);" style="shape=parallelogram;html=1;strokeWidth=2;perimeter=parallelogramPerimeter;whiteSpace=wrap;rounded=1;arcSize=12;size=0.16666666666666666;" parent="1" vertex="1">
          <mxGeometry x="-120" y="370" width="160" height="40" as="geometry" />
        </mxCell>
        <mxCell id="z7qtgcYWtyjk0ctPWtKN-41" style="edgeStyle=orthogonalEdgeStyle;rounded=0;orthogonalLoop=1;jettySize=auto;html=1;exitX=0.5;exitY=1;exitDx=0;exitDy=0;entryX=0.5;entryY=0;entryDx=0;entryDy=0;" parent="1" source="z7qtgcYWtyjk0ctPWtKN-40" target="z7qtgcYWtyjk0ctPWtKN-43" edge="1">
          <mxGeometry relative="1" as="geometry">
            <mxPoint x="-40" y="540" as="targetPoint" />
          </mxGeometry>
        </mxCell>
        <mxCell id="z7qtgcYWtyjk0ctPWtKN-40" value="cout &amp;lt;&amp;lt; &quot;В столбце &quot; &amp;lt;&amp;lt; 1 &amp;lt;&amp;lt; &quot; строки &quot; &amp;lt;&amp;lt; desk[1][0] &amp;lt;&amp;lt; &quot; найдена свободная клетка.&quot; &amp;lt;&amp;lt; endl;" style="shape=parallelogram;html=1;strokeWidth=2;perimeter=parallelogramPerimeter;whiteSpace=wrap;rounded=1;arcSize=12;size=0.05357142857142857;" parent="1" vertex="1">
          <mxGeometry x="-210" y="490" width="340" height="40" as="geometry" />
        </mxCell>
        <mxCell id="z7qtgcYWtyjk0ctPWtKN-45" style="edgeStyle=orthogonalEdgeStyle;rounded=0;orthogonalLoop=1;jettySize=auto;html=1;exitX=0.5;exitY=1;exitDx=0;exitDy=0;" parent="1" source="z7qtgcYWtyjk0ctPWtKN-43" target="z7qtgcYWtyjk0ctPWtKN-46" edge="1">
          <mxGeometry relative="1" as="geometry">
            <mxPoint x="-40" y="620" as="targetPoint" />
          </mxGeometry>
        </mxCell>
        <mxCell id="z7qtgcYWtyjk0ctPWtKN-43" value="cout &amp;lt;&amp;lt; &quot;\tПереход на более глубокий уровень рекурсии. Вызов desk_rec(&quot; &amp;lt;&amp;lt; 1 &amp;lt;&amp;lt; &quot;)&quot; &amp;lt;&amp;lt; endl;" style="shape=parallelogram;html=1;strokeWidth=2;perimeter=parallelogramPerimeter;whiteSpace=wrap;rounded=1;arcSize=12;size=0.05357142857142857;" parent="1" vertex="1">
          <mxGeometry x="-210" y="550" width="340" height="40" as="geometry" />
        </mxCell>
        <mxCell id="z7qtgcYWtyjk0ctPWtKN-47" style="edgeStyle=orthogonalEdgeStyle;rounded=0;orthogonalLoop=1;jettySize=auto;html=1;exitX=0.5;exitY=1;exitDx=0;exitDy=0;" parent="1" source="z7qtgcYWtyjk0ctPWtKN-46" target="JoiuVAvioGvqHBmtf9we-3" edge="1">
          <mxGeometry relative="1" as="geometry">
            <mxPoint x="-40" y="680" as="targetPoint" />
          </mxGeometry>
        </mxCell>
        <mxCell id="z7qtgcYWtyjk0ctPWtKN-46" value="system(&quot;pause&quot;);" style="shape=parallelogram;html=1;strokeWidth=2;perimeter=parallelogramPerimeter;whiteSpace=wrap;rounded=1;arcSize=12;size=0.16666666666666666;" parent="1" vertex="1">
          <mxGeometry x="-120" y="610" width="160" height="40" as="geometry" />
        </mxCell>
        <mxCell id="z7qtgcYWtyjk0ctPWtKN-49" style="edgeStyle=orthogonalEdgeStyle;rounded=0;orthogonalLoop=1;jettySize=auto;html=1;exitX=0.5;exitY=1;exitDx=0;exitDy=0;" parent="1" source="z7qtgcYWtyjk0ctPWtKN-48" edge="1">
          <mxGeometry relative="1" as="geometry">
            <mxPoint x="100" y="780" as="targetPoint" />
            <Array as="points">
              <mxPoint x="-40" y="780" />
              <mxPoint x="100" y="780" />
            </Array>
          </mxGeometry>
        </mxCell>
        <mxCell id="z7qtgcYWtyjk0ctPWtKN-48" value="cout &amp;lt;&amp;lt; endl;" style="shape=parallelogram;html=1;strokeWidth=2;perimeter=parallelogramPerimeter;whiteSpace=wrap;rounded=1;arcSize=12;size=0.16666666666666666;" parent="1" vertex="1">
          <mxGeometry x="-120" y="730" width="160" height="40" as="geometry" />
        </mxCell>
        <mxCell id="z7qtgcYWtyjk0ctPWtKN-50" value="" style="endArrow=classic;html=1;rounded=0;" parent="1" edge="1">
          <mxGeometry width="50" height="50" relative="1" as="geometry">
            <mxPoint x="100" y="780" as="sourcePoint" />
            <mxPoint x="99.96000000000015" y="800" as="targetPoint" />
          </mxGeometry>
        </mxCell>
        <mxCell id="z7qtgcYWtyjk0ctPWtKN-115" style="edgeStyle=orthogonalEdgeStyle;rounded=0;orthogonalLoop=1;jettySize=auto;html=1;exitX=0.5;exitY=1;exitDx=0;exitDy=0;" parent="1" source="z7qtgcYWtyjk0ctPWtKN-51" edge="1">
          <mxGeometry relative="1" as="geometry">
            <mxPoint x="340" y="1420" as="targetPoint" />
            <Array as="points">
              <mxPoint x="100" y="1420" />
            </Array>
          </mxGeometry>
        </mxCell>
        <mxCell id="z7qtgcYWtyjk0ctPWtKN-51" value="desk_rec(n + 1);" style="shape=parallelogram;html=1;strokeWidth=2;perimeter=parallelogramPerimeter;whiteSpace=wrap;rounded=1;arcSize=12;size=0.16666666666666666;" parent="1" vertex="1">
          <mxGeometry x="20" y="800" width="160" height="40" as="geometry" />
        </mxCell>
        <mxCell id="z7qtgcYWtyjk0ctPWtKN-52" style="edgeStyle=orthogonalEdgeStyle;rounded=0;orthogonalLoop=1;jettySize=auto;html=1;exitX=0.5;exitY=1;exitDx=0;exitDy=0;" parent="1" source="z7qtgcYWtyjk0ctPWtKN-54" edge="1">
          <mxGeometry relative="1" as="geometry">
            <mxPoint x="700" y="330" as="targetPoint" />
          </mxGeometry>
        </mxCell>
        <mxCell id="z7qtgcYWtyjk0ctPWtKN-53" style="edgeStyle=orthogonalEdgeStyle;rounded=0;orthogonalLoop=1;jettySize=auto;html=1;exitX=1;exitY=0.5;exitDx=0;exitDy=0;" parent="1" source="z7qtgcYWtyjk0ctPWtKN-54" edge="1">
          <mxGeometry relative="1" as="geometry">
            <mxPoint x="340" y="1420" as="targetPoint" />
            <Array as="points">
              <mxPoint x="840" y="270" />
              <mxPoint x="840" y="1420" />
              <mxPoint x="340" y="1420" />
            </Array>
          </mxGeometry>
        </mxCell>
        <mxCell id="z7qtgcYWtyjk0ctPWtKN-54" value="for (int i = 0; i &amp;lt; 8; ++i)" style="verticalLabelPosition=middle;verticalAlign=middle;html=1;shape=hexagon;perimeter=hexagonPerimeter2;arcSize=6;size=0.15;labelPosition=center;align=center;" parent="1" vertex="1">
          <mxGeometry x="600.04" y="250" width="200" height="40" as="geometry" />
        </mxCell>
        <mxCell id="z7qtgcYWtyjk0ctPWtKN-55" value="1" style="text;html=1;strokeColor=none;fillColor=none;align=center;verticalAlign=middle;whiteSpace=wrap;rounded=0;" parent="1" vertex="1">
          <mxGeometry x="670.04" y="290" width="30" height="30" as="geometry" />
        </mxCell>
        <mxCell id="z7qtgcYWtyjk0ctPWtKN-56" value="{" style="text;html=1;strokeColor=none;fillColor=none;align=center;verticalAlign=middle;whiteSpace=wrap;rounded=0;" parent="1" vertex="1">
          <mxGeometry x="700.04" y="290" width="30" height="30" as="geometry" />
        </mxCell>
        <mxCell id="z7qtgcYWtyjk0ctPWtKN-57" value="0" style="text;html=1;strokeColor=none;fillColor=none;align=center;verticalAlign=middle;whiteSpace=wrap;rounded=0;" parent="1" vertex="1">
          <mxGeometry x="800.04" y="240" width="30" height="30" as="geometry" />
        </mxCell>
        <mxCell id="z7qtgcYWtyjk0ctPWtKN-64" style="edgeStyle=orthogonalEdgeStyle;rounded=0;orthogonalLoop=1;jettySize=auto;html=1;exitX=0;exitY=0.5;exitDx=0;exitDy=0;exitPerimeter=0;entryX=0.5;entryY=0;entryDx=0;entryDy=0;" parent="1" source="z7qtgcYWtyjk0ctPWtKN-66" target="z7qtgcYWtyjk0ctPWtKN-69" edge="1">
          <mxGeometry relative="1" as="geometry">
            <mxPoint x="559.79" y="400" as="targetPoint" />
          </mxGeometry>
        </mxCell>
        <mxCell id="z7qtgcYWtyjk0ctPWtKN-65" style="edgeStyle=orthogonalEdgeStyle;rounded=0;orthogonalLoop=1;jettySize=auto;html=1;exitX=1;exitY=0.5;exitDx=0;exitDy=0;exitPerimeter=0;" parent="1" source="z7qtgcYWtyjk0ctPWtKN-66" edge="1">
          <mxGeometry relative="1" as="geometry">
            <mxPoint x="720" y="1380" as="targetPoint" />
            <Array as="points">
              <mxPoint x="820" y="540" />
              <mxPoint x="820" y="1380" />
            </Array>
          </mxGeometry>
        </mxCell>
        <mxCell id="z7qtgcYWtyjk0ctPWtKN-66" value="if (desk[n + (n - 1) * 8 + 2][i] == 0 &amp;amp;&amp;amp; (desk[1][7] == 0))" style="strokeWidth=2;html=1;shape=mxgraph.flowchart.decision;whiteSpace=wrap;fontSize=10;" parent="1" vertex="1">
          <mxGeometry x="600.04" y="510" width="200" height="60" as="geometry" />
        </mxCell>
        <mxCell id="z7qtgcYWtyjk0ctPWtKN-67" value="1" style="text;html=1;strokeColor=none;fillColor=none;align=center;verticalAlign=middle;whiteSpace=wrap;rounded=0;" parent="1" vertex="1">
          <mxGeometry x="570.04" y="510" width="30" height="30" as="geometry" />
        </mxCell>
        <mxCell id="z7qtgcYWtyjk0ctPWtKN-68" value="0" style="text;html=1;strokeColor=none;fillColor=none;align=center;verticalAlign=middle;whiteSpace=wrap;rounded=0;" parent="1" vertex="1">
          <mxGeometry x="797" y="510" width="30" height="30" as="geometry" />
        </mxCell>
        <mxCell id="z7qtgcYWtyjk0ctPWtKN-71" style="edgeStyle=orthogonalEdgeStyle;rounded=0;orthogonalLoop=1;jettySize=auto;html=1;exitX=0.5;exitY=1;exitDx=0;exitDy=0;entryX=0.5;entryY=0;entryDx=0;entryDy=0;" parent="1" source="z7qtgcYWtyjk0ctPWtKN-69" target="z7qtgcYWtyjk0ctPWtKN-70" edge="1">
          <mxGeometry relative="1" as="geometry" />
        </mxCell>
        <mxCell id="z7qtgcYWtyjk0ctPWtKN-69" value="desk[1][n] = i;" style="rounded=1;whiteSpace=wrap;html=1;absoluteArcSize=1;arcSize=14;strokeWidth=2;" parent="1" vertex="1">
          <mxGeometry x="509.75" y="560" width="100" height="40" as="geometry" />
        </mxCell>
        <mxCell id="z7qtgcYWtyjk0ctPWtKN-72" style="edgeStyle=orthogonalEdgeStyle;rounded=0;orthogonalLoop=1;jettySize=auto;html=1;exitX=0.5;exitY=1;exitDx=0;exitDy=0;entryX=0.5;entryY=0;entryDx=0;entryDy=0;entryPerimeter=0;" parent="1" source="z7qtgcYWtyjk0ctPWtKN-70" target="z7qtgcYWtyjk0ctPWtKN-90" edge="1">
          <mxGeometry relative="1" as="geometry">
            <mxPoint x="280" y="690" as="targetPoint" />
          </mxGeometry>
        </mxCell>
        <mxCell id="z7qtgcYWtyjk0ctPWtKN-70" value="desk_place(n);" style="shape=parallelogram;html=1;strokeWidth=2;perimeter=parallelogramPerimeter;whiteSpace=wrap;rounded=1;arcSize=12;size=0.16666666666666666;" parent="1" vertex="1">
          <mxGeometry x="479.75" y="620" width="160" height="40" as="geometry" />
        </mxCell>
        <mxCell id="z7qtgcYWtyjk0ctPWtKN-88" style="edgeStyle=orthogonalEdgeStyle;rounded=0;orthogonalLoop=1;jettySize=auto;html=1;exitX=0;exitY=0.5;exitDx=0;exitDy=0;exitPerimeter=0;entryX=0.5;entryY=0;entryDx=0;entryDy=0;" parent="1" source="z7qtgcYWtyjk0ctPWtKN-90" target="z7qtgcYWtyjk0ctPWtKN-94" edge="1">
          <mxGeometry relative="1" as="geometry">
            <mxPoint x="419.46000000000004" y="750" as="targetPoint" />
          </mxGeometry>
        </mxCell>
        <mxCell id="z7qtgcYWtyjk0ctPWtKN-89" style="edgeStyle=orthogonalEdgeStyle;rounded=0;orthogonalLoop=1;jettySize=auto;html=1;exitX=1;exitY=0.5;exitDx=0;exitDy=0;exitPerimeter=0;" parent="1" source="z7qtgcYWtyjk0ctPWtKN-90" edge="1">
          <mxGeometry relative="1" as="geometry">
            <mxPoint x="560" y="1150" as="targetPoint" />
            <Array as="points">
              <mxPoint x="680" y="710" />
              <mxPoint x="680" y="1150" />
              <mxPoint x="560" y="1150" />
            </Array>
          </mxGeometry>
        </mxCell>
        <mxCell id="z7qtgcYWtyjk0ctPWtKN-90" value="if (show_desk)" style="strokeWidth=2;html=1;shape=mxgraph.flowchart.decision;whiteSpace=wrap;" parent="1" vertex="1">
          <mxGeometry x="459.46" y="680" width="200" height="60" as="geometry" />
        </mxCell>
        <mxCell id="z7qtgcYWtyjk0ctPWtKN-91" value="1" style="text;html=1;strokeColor=none;fillColor=none;align=center;verticalAlign=middle;whiteSpace=wrap;rounded=0;" parent="1" vertex="1">
          <mxGeometry x="429.46" y="680" width="30" height="30" as="geometry" />
        </mxCell>
        <mxCell id="z7qtgcYWtyjk0ctPWtKN-92" value="0" style="text;html=1;strokeColor=none;fillColor=none;align=center;verticalAlign=middle;whiteSpace=wrap;rounded=0;" parent="1" vertex="1">
          <mxGeometry x="659.46" y="680" width="30" height="30" as="geometry" />
        </mxCell>
        <mxCell id="z7qtgcYWtyjk0ctPWtKN-93" style="edgeStyle=orthogonalEdgeStyle;rounded=0;orthogonalLoop=1;jettySize=auto;html=1;exitX=0.5;exitY=1;exitDx=0;exitDy=0;" parent="1" source="z7qtgcYWtyjk0ctPWtKN-94" edge="1">
          <mxGeometry relative="1" as="geometry">
            <mxPoint x="420" y="790" as="targetPoint" />
          </mxGeometry>
        </mxCell>
        <mxCell id="z7qtgcYWtyjk0ctPWtKN-94" value="desk_print(n, -1);" style="shape=parallelogram;html=1;strokeWidth=2;perimeter=parallelogramPerimeter;whiteSpace=wrap;rounded=1;arcSize=12;size=0.16666666666666666;" parent="1" vertex="1">
          <mxGeometry x="339.75" y="730" width="160" height="40" as="geometry" />
        </mxCell>
        <mxCell id="z7qtgcYWtyjk0ctPWtKN-95" style="edgeStyle=orthogonalEdgeStyle;rounded=0;orthogonalLoop=1;jettySize=auto;html=1;exitX=0.5;exitY=1;exitDx=0;exitDy=0;entryX=0.5;entryY=0;entryDx=0;entryDy=0;" parent="1" source="z7qtgcYWtyjk0ctPWtKN-96" target="z7qtgcYWtyjk0ctPWtKN-98" edge="1">
          <mxGeometry relative="1" as="geometry">
            <mxPoint x="419.75" y="900" as="targetPoint" />
          </mxGeometry>
        </mxCell>
        <mxCell id="z7qtgcYWtyjk0ctPWtKN-96" value="cout &amp;lt;&amp;lt; &quot;В столбце &quot; &amp;lt;&amp;lt; i + 1 &amp;lt;&amp;lt; &quot; строки &quot; &amp;lt;&amp;lt; n + 1 &amp;lt;&amp;lt; &quot; найдена свободная клетка.&quot; &amp;lt;&amp;lt; endl;" style="shape=parallelogram;html=1;strokeWidth=2;perimeter=parallelogramPerimeter;whiteSpace=wrap;rounded=1;arcSize=12;size=0.05357142857142857;" parent="1" vertex="1">
          <mxGeometry x="249.75" y="850" width="340" height="40" as="geometry" />
        </mxCell>
        <mxCell id="z7qtgcYWtyjk0ctPWtKN-97" style="edgeStyle=orthogonalEdgeStyle;rounded=0;orthogonalLoop=1;jettySize=auto;html=1;exitX=0.5;exitY=1;exitDx=0;exitDy=0;" parent="1" source="z7qtgcYWtyjk0ctPWtKN-98" target="z7qtgcYWtyjk0ctPWtKN-100" edge="1">
          <mxGeometry relative="1" as="geometry">
            <mxPoint x="419.75" y="980" as="targetPoint" />
          </mxGeometry>
        </mxCell>
        <mxCell id="z7qtgcYWtyjk0ctPWtKN-98" value="cout &amp;lt;&amp;lt; &quot;\tПереход на более глубокий уровень рекурсии. Вызов desk_rec(&quot; &amp;lt;&amp;lt; n + 1 &amp;lt;&amp;lt; &quot;)&quot; &amp;lt;&amp;lt; endl;" style="shape=parallelogram;html=1;strokeWidth=2;perimeter=parallelogramPerimeter;whiteSpace=wrap;rounded=1;arcSize=12;size=0.05357142857142857;" parent="1" vertex="1">
          <mxGeometry x="249.75" y="910" width="340" height="40" as="geometry" />
        </mxCell>
        <mxCell id="z7qtgcYWtyjk0ctPWtKN-99" style="edgeStyle=orthogonalEdgeStyle;rounded=0;orthogonalLoop=1;jettySize=auto;html=1;exitX=0.5;exitY=1;exitDx=0;exitDy=0;entryX=0.5;entryY=0;entryDx=0;entryDy=0;" parent="1" source="z7qtgcYWtyjk0ctPWtKN-100" target="JoiuVAvioGvqHBmtf9we-10" edge="1">
          <mxGeometry relative="1" as="geometry">
            <mxPoint x="430" y="1030" as="targetPoint" />
          </mxGeometry>
        </mxCell>
        <mxCell id="z7qtgcYWtyjk0ctPWtKN-100" value="system(&quot;pause&quot;);" style="shape=parallelogram;html=1;strokeWidth=2;perimeter=parallelogramPerimeter;whiteSpace=wrap;rounded=1;arcSize=12;size=0.16666666666666666;" parent="1" vertex="1">
          <mxGeometry x="339.75" y="970" width="160" height="40" as="geometry" />
        </mxCell>
        <mxCell id="z7qtgcYWtyjk0ctPWtKN-101" style="edgeStyle=orthogonalEdgeStyle;rounded=0;orthogonalLoop=1;jettySize=auto;html=1;exitX=0.5;exitY=1;exitDx=0;exitDy=0;" parent="1" source="z7qtgcYWtyjk0ctPWtKN-102" edge="1">
          <mxGeometry relative="1" as="geometry">
            <mxPoint x="560" y="1150" as="targetPoint" />
            <Array as="points">
              <mxPoint x="420" y="1150" />
              <mxPoint x="560" y="1150" />
            </Array>
          </mxGeometry>
        </mxCell>
        <mxCell id="z7qtgcYWtyjk0ctPWtKN-102" value="cout &amp;lt;&amp;lt; endl;" style="shape=parallelogram;html=1;strokeWidth=2;perimeter=parallelogramPerimeter;whiteSpace=wrap;rounded=1;arcSize=12;size=0.16666666666666666;" parent="1" vertex="1">
          <mxGeometry x="340" y="1090" width="160" height="40" as="geometry" />
        </mxCell>
        <mxCell id="z7qtgcYWtyjk0ctPWtKN-103" value="" style="endArrow=classic;html=1;rounded=0;entryX=0.5;entryY=0;entryDx=0;entryDy=0;" parent="1" edge="1" target="z7qtgcYWtyjk0ctPWtKN-104">
          <mxGeometry width="50" height="50" relative="1" as="geometry">
            <mxPoint x="560" y="1150" as="sourcePoint" />
            <mxPoint x="559.7100000000002" y="1160" as="targetPoint" />
          </mxGeometry>
        </mxCell>
        <mxCell id="z7qtgcYWtyjk0ctPWtKN-104" value="desk_rec(n + 1);" style="shape=parallelogram;html=1;strokeWidth=2;perimeter=parallelogramPerimeter;whiteSpace=wrap;rounded=1;arcSize=12;size=0.16666666666666666;" parent="1" vertex="1">
          <mxGeometry x="479.75" y="1170" width="160" height="40" as="geometry" />
        </mxCell>
        <mxCell id="z7qtgcYWtyjk0ctPWtKN-105" style="edgeStyle=orthogonalEdgeStyle;rounded=0;orthogonalLoop=1;jettySize=auto;html=1;exitX=0;exitY=0.5;exitDx=0;exitDy=0;exitPerimeter=0;" parent="1" source="z7qtgcYWtyjk0ctPWtKN-107" target="z7qtgcYWtyjk0ctPWtKN-111" edge="1">
          <mxGeometry relative="1" as="geometry">
            <mxPoint x="419.21000000000004" y="1300" as="targetPoint" />
          </mxGeometry>
        </mxCell>
        <mxCell id="z7qtgcYWtyjk0ctPWtKN-106" style="edgeStyle=orthogonalEdgeStyle;rounded=0;orthogonalLoop=1;jettySize=auto;html=1;exitX=1;exitY=0.5;exitDx=0;exitDy=0;exitPerimeter=0;" parent="1" source="z7qtgcYWtyjk0ctPWtKN-107" edge="1">
          <mxGeometry relative="1" as="geometry">
            <mxPoint x="559" y="1360" as="targetPoint" />
            <Array as="points">
              <mxPoint x="679" y="1260" />
              <mxPoint x="679" y="1360" />
            </Array>
          </mxGeometry>
        </mxCell>
        <mxCell id="z7qtgcYWtyjk0ctPWtKN-107" value="if (desk[1][7] == 0)" style="strokeWidth=2;html=1;shape=mxgraph.flowchart.decision;whiteSpace=wrap;" parent="1" vertex="1">
          <mxGeometry x="459.21000000000004" y="1230" width="200" height="60" as="geometry" />
        </mxCell>
        <mxCell id="z7qtgcYWtyjk0ctPWtKN-108" value="1" style="text;html=1;strokeColor=none;fillColor=none;align=center;verticalAlign=middle;whiteSpace=wrap;rounded=0;" parent="1" vertex="1">
          <mxGeometry x="429.21000000000004" y="1230" width="30" height="30" as="geometry" />
        </mxCell>
        <mxCell id="z7qtgcYWtyjk0ctPWtKN-109" value="0" style="text;html=1;strokeColor=none;fillColor=none;align=center;verticalAlign=middle;whiteSpace=wrap;rounded=0;" parent="1" vertex="1">
          <mxGeometry x="659.21" y="1230" width="30" height="30" as="geometry" />
        </mxCell>
        <mxCell id="z7qtgcYWtyjk0ctPWtKN-110" style="edgeStyle=orthogonalEdgeStyle;rounded=0;orthogonalLoop=1;jettySize=auto;html=1;exitX=0.5;exitY=1;exitDx=0;exitDy=0;entryX=0.5;entryY=0;entryDx=0;entryDy=0;entryPerimeter=0;" parent="1" source="z7qtgcYWtyjk0ctPWtKN-104" target="z7qtgcYWtyjk0ctPWtKN-107" edge="1">
          <mxGeometry relative="1" as="geometry" />
        </mxCell>
        <mxCell id="z7qtgcYWtyjk0ctPWtKN-112" style="edgeStyle=orthogonalEdgeStyle;rounded=0;orthogonalLoop=1;jettySize=auto;html=1;exitX=0.5;exitY=1;exitDx=0;exitDy=0;" parent="1" source="z7qtgcYWtyjk0ctPWtKN-111" edge="1">
          <mxGeometry relative="1" as="geometry">
            <mxPoint x="560" y="1360" as="targetPoint" />
          </mxGeometry>
        </mxCell>
        <mxCell id="z7qtgcYWtyjk0ctPWtKN-111" value="cout &amp;lt;&amp;lt; &quot;Нет расстановок удовледтворяющих решению, возврат на более высокий уровень.&quot; &amp;lt;&amp;lt; endl;" style="shape=parallelogram;html=1;strokeWidth=2;perimeter=parallelogramPerimeter;whiteSpace=wrap;rounded=1;arcSize=12;size=0.05357142857142857;" parent="1" vertex="1">
          <mxGeometry x="249.75" y="1300" width="340" height="40" as="geometry" />
        </mxCell>
        <mxCell id="z7qtgcYWtyjk0ctPWtKN-113" value="" style="endArrow=classic;html=1;rounded=0;" parent="1" edge="1">
          <mxGeometry width="50" height="50" relative="1" as="geometry">
            <mxPoint x="560" y="1360" as="sourcePoint" />
            <mxPoint x="720" y="1380" as="targetPoint" />
            <Array as="points">
              <mxPoint x="560" y="1380" />
            </Array>
          </mxGeometry>
        </mxCell>
        <mxCell id="z7qtgcYWtyjk0ctPWtKN-114" value="" style="endArrow=classic;html=1;rounded=0;" parent="1" edge="1">
          <mxGeometry width="50" height="50" relative="1" as="geometry">
            <mxPoint x="720" y="1380" as="sourcePoint" />
            <mxPoint x="600" y="270" as="targetPoint" />
            <Array as="points">
              <mxPoint x="720" y="1400" />
              <mxPoint x="240" y="1400" />
              <mxPoint x="240" y="270" />
            </Array>
          </mxGeometry>
        </mxCell>
        <mxCell id="z7qtgcYWtyjk0ctPWtKN-116" value="" style="endArrow=classic;html=1;rounded=0;" parent="1" edge="1">
          <mxGeometry width="50" height="50" relative="1" as="geometry">
            <mxPoint x="339" y="1420" as="sourcePoint" />
            <mxPoint x="510" y="1480" as="targetPoint" />
            <Array as="points">
              <mxPoint x="339" y="1480" />
            </Array>
          </mxGeometry>
        </mxCell>
        <mxCell id="JoiuVAvioGvqHBmtf9we-2" style="edgeStyle=orthogonalEdgeStyle;rounded=0;orthogonalLoop=1;jettySize=auto;html=1;exitX=0.5;exitY=1;exitDx=0;exitDy=0;entryX=0.5;entryY=0;entryDx=0;entryDy=0;" edge="1" parent="1" source="JoiuVAvioGvqHBmtf9we-1" target="z7qtgcYWtyjk0ctPWtKN-40">
          <mxGeometry relative="1" as="geometry" />
        </mxCell>
        <mxCell id="JoiuVAvioGvqHBmtf9we-1" value="system(&quot;chcp 1251&quot;);" style="shape=parallelogram;html=1;strokeWidth=2;perimeter=parallelogramPerimeter;whiteSpace=wrap;rounded=1;arcSize=12;size=0.16666666666666666;" vertex="1" parent="1">
          <mxGeometry x="-120" y="430.0000000000001" width="160" height="40" as="geometry" />
        </mxCell>
        <mxCell id="JoiuVAvioGvqHBmtf9we-4" style="edgeStyle=orthogonalEdgeStyle;rounded=0;orthogonalLoop=1;jettySize=auto;html=1;exitX=0.5;exitY=1;exitDx=0;exitDy=0;entryX=0.5;entryY=0;entryDx=0;entryDy=0;" edge="1" parent="1" source="JoiuVAvioGvqHBmtf9we-3" target="z7qtgcYWtyjk0ctPWtKN-48">
          <mxGeometry relative="1" as="geometry" />
        </mxCell>
        <mxCell id="JoiuVAvioGvqHBmtf9we-3" value="system(&quot;chcp 866&quot;);" style="shape=parallelogram;html=1;strokeWidth=2;perimeter=parallelogramPerimeter;whiteSpace=wrap;rounded=1;arcSize=12;size=0.16666666666666666;" vertex="1" parent="1">
          <mxGeometry x="-120" y="670" width="160" height="40" as="geometry" />
        </mxCell>
        <mxCell id="JoiuVAvioGvqHBmtf9we-5" value="{" style="text;html=1;strokeColor=none;fillColor=none;align=center;verticalAlign=middle;whiteSpace=wrap;rounded=0;" vertex="1" parent="1">
          <mxGeometry x="390" y="700" width="30" height="30" as="geometry" />
        </mxCell>
        <mxCell id="JoiuVAvioGvqHBmtf9we-6" value="}" style="text;html=1;strokeColor=none;fillColor=none;align=center;verticalAlign=middle;whiteSpace=wrap;rounded=0;" vertex="1" parent="1">
          <mxGeometry x="479.75" y="1120" width="30" height="30" as="geometry" />
        </mxCell>
        <mxCell id="JoiuVAvioGvqHBmtf9we-7" value="{" style="text;html=1;strokeColor=none;fillColor=none;align=center;verticalAlign=middle;whiteSpace=wrap;rounded=0;" vertex="1" parent="1">
          <mxGeometry x="-70" y="340" width="30" height="30" as="geometry" />
        </mxCell>
        <mxCell id="JoiuVAvioGvqHBmtf9we-8" value="}" style="text;html=1;strokeColor=none;fillColor=none;align=center;verticalAlign=middle;whiteSpace=wrap;rounded=0;" vertex="1" parent="1">
          <mxGeometry x="30" y="750" width="30" height="30" as="geometry" />
        </mxCell>
        <mxCell id="JoiuVAvioGvqHBmtf9we-11" style="edgeStyle=orthogonalEdgeStyle;rounded=0;orthogonalLoop=1;jettySize=auto;html=1;exitX=0.5;exitY=1;exitDx=0;exitDy=0;entryX=0.5;entryY=0;entryDx=0;entryDy=0;" edge="1" parent="1" source="JoiuVAvioGvqHBmtf9we-9" target="z7qtgcYWtyjk0ctPWtKN-96">
          <mxGeometry relative="1" as="geometry" />
        </mxCell>
        <mxCell id="JoiuVAvioGvqHBmtf9we-9" value="system(&quot;chcp 1251&quot;);" style="shape=parallelogram;html=1;strokeWidth=2;perimeter=parallelogramPerimeter;whiteSpace=wrap;rounded=1;arcSize=12;size=0.16666666666666666;" vertex="1" parent="1">
          <mxGeometry x="339.75" y="790.0000000000001" width="160" height="40" as="geometry" />
        </mxCell>
        <mxCell id="JoiuVAvioGvqHBmtf9we-12" style="edgeStyle=orthogonalEdgeStyle;rounded=0;orthogonalLoop=1;jettySize=auto;html=1;exitX=0.5;exitY=1;exitDx=0;exitDy=0;entryX=0.5;entryY=0;entryDx=0;entryDy=0;" edge="1" parent="1" source="JoiuVAvioGvqHBmtf9we-10" target="z7qtgcYWtyjk0ctPWtKN-102">
          <mxGeometry relative="1" as="geometry" />
        </mxCell>
        <mxCell id="JoiuVAvioGvqHBmtf9we-10" value="system(&quot;chcp 866&quot;);" style="shape=parallelogram;html=1;strokeWidth=2;perimeter=parallelogramPerimeter;whiteSpace=wrap;rounded=1;arcSize=12;size=0.16666666666666666;" vertex="1" parent="1">
          <mxGeometry x="339.75" y="1030" width="160" height="40" as="geometry" />
        </mxCell>
        <mxCell id="JoiuVAvioGvqHBmtf9we-13" style="edgeStyle=orthogonalEdgeStyle;rounded=0;orthogonalLoop=1;jettySize=auto;html=1;exitX=0;exitY=0.5;exitDx=0;exitDy=0;exitPerimeter=0;" edge="1" source="JoiuVAvioGvqHBmtf9we-15" parent="1">
          <mxGeometry relative="1" as="geometry">
            <mxPoint x="559.75" y="380" as="targetPoint" />
            <Array as="points">
              <mxPoint x="559.75" y="360" />
            </Array>
          </mxGeometry>
        </mxCell>
        <mxCell id="JoiuVAvioGvqHBmtf9we-14" style="edgeStyle=orthogonalEdgeStyle;rounded=0;orthogonalLoop=1;jettySize=auto;html=1;exitX=1;exitY=0.5;exitDx=0;exitDy=0;exitPerimeter=0;" edge="1" source="JoiuVAvioGvqHBmtf9we-15" parent="1">
          <mxGeometry relative="1" as="geometry">
            <mxPoint x="700" y="490" as="targetPoint" />
            <Array as="points">
              <mxPoint x="820" y="360" />
              <mxPoint x="820" y="490" />
              <mxPoint x="700" y="490" />
            </Array>
          </mxGeometry>
        </mxCell>
        <mxCell id="JoiuVAvioGvqHBmtf9we-15" value="if (show_desk)" style="strokeWidth=2;html=1;shape=mxgraph.flowchart.decision;whiteSpace=wrap;" vertex="1" parent="1">
          <mxGeometry x="599.75" y="330" width="200" height="60" as="geometry" />
        </mxCell>
        <mxCell id="JoiuVAvioGvqHBmtf9we-16" value="1" style="text;html=1;strokeColor=none;fillColor=none;align=center;verticalAlign=middle;whiteSpace=wrap;rounded=0;" vertex="1" parent="1">
          <mxGeometry x="569.75" y="330" width="30" height="30" as="geometry" />
        </mxCell>
        <mxCell id="JoiuVAvioGvqHBmtf9we-17" value="0" style="text;html=1;strokeColor=none;fillColor=none;align=center;verticalAlign=middle;whiteSpace=wrap;rounded=0;" vertex="1" parent="1">
          <mxGeometry x="799.75" y="330" width="30" height="30" as="geometry" />
        </mxCell>
        <mxCell id="JoiuVAvioGvqHBmtf9we-19" style="edgeStyle=orthogonalEdgeStyle;rounded=0;orthogonalLoop=1;jettySize=auto;html=1;exitX=0.5;exitY=1;exitDx=0;exitDy=0;" edge="1" parent="1" source="JoiuVAvioGvqHBmtf9we-18" target="JoiuVAvioGvqHBmtf9we-20">
          <mxGeometry relative="1" as="geometry">
            <mxPoint x="559.75" y="460" as="targetPoint" />
          </mxGeometry>
        </mxCell>
        <mxCell id="JoiuVAvioGvqHBmtf9we-26" value="" style="edgeStyle=orthogonalEdgeStyle;rounded=0;orthogonalLoop=1;jettySize=auto;html=1;" edge="1" parent="1" source="JoiuVAvioGvqHBmtf9we-18" target="JoiuVAvioGvqHBmtf9we-16">
          <mxGeometry relative="1" as="geometry" />
        </mxCell>
        <mxCell id="JoiuVAvioGvqHBmtf9we-18" value="desk_print(n - 1, i);" style="shape=parallelogram;html=1;strokeWidth=2;perimeter=parallelogramPerimeter;whiteSpace=wrap;rounded=1;arcSize=12;size=0.16666666666666666;" vertex="1" parent="1">
          <mxGeometry x="479.75" y="380" width="160" height="40" as="geometry" />
        </mxCell>
        <mxCell id="JoiuVAvioGvqHBmtf9we-21" style="edgeStyle=orthogonalEdgeStyle;rounded=0;orthogonalLoop=1;jettySize=auto;html=1;exitX=0.5;exitY=1;exitDx=0;exitDy=0;" edge="1" parent="1" source="JoiuVAvioGvqHBmtf9we-20">
          <mxGeometry relative="1" as="geometry">
            <mxPoint x="700" y="490" as="targetPoint" />
            <Array as="points">
              <mxPoint x="560" y="490" />
              <mxPoint x="700" y="490" />
            </Array>
          </mxGeometry>
        </mxCell>
        <mxCell id="JoiuVAvioGvqHBmtf9we-20" value="system(&quot;pause&quot;);" style="shape=parallelogram;html=1;strokeWidth=2;perimeter=parallelogramPerimeter;whiteSpace=wrap;rounded=1;arcSize=12;size=0.16666666666666666;" vertex="1" parent="1">
          <mxGeometry x="479.75" y="440" width="160" height="40" as="geometry" />
        </mxCell>
        <mxCell id="JoiuVAvioGvqHBmtf9we-22" value="" style="endArrow=classic;html=1;rounded=0;" edge="1" parent="1">
          <mxGeometry width="50" height="50" relative="1" as="geometry">
            <mxPoint x="700.0400000000002" y="490" as="sourcePoint" />
            <mxPoint x="700" y="510" as="targetPoint" />
          </mxGeometry>
        </mxCell>
        <mxCell id="JoiuVAvioGvqHBmtf9we-23" value="{" style="text;html=1;strokeColor=none;fillColor=none;align=center;verticalAlign=middle;whiteSpace=wrap;rounded=0;" vertex="1" parent="1">
          <mxGeometry x="530" y="350" width="30" height="30" as="geometry" />
        </mxCell>
        <mxCell id="JoiuVAvioGvqHBmtf9we-24" value="}" style="text;html=1;strokeColor=none;fillColor=none;align=center;verticalAlign=middle;whiteSpace=wrap;rounded=0;" vertex="1" parent="1">
          <mxGeometry x="629.2099999999999" y="460" width="30" height="30" as="geometry" />
        </mxCell>
        <mxCell id="JoiuVAvioGvqHBmtf9we-25" value="}" style="text;html=1;strokeColor=none;fillColor=none;align=center;verticalAlign=middle;whiteSpace=wrap;rounded=0;" vertex="1" parent="1">
          <mxGeometry x="579.7499999999999" y="1330" width="30" height="30" as="geometry" />
        </mxCell>
        <mxCell id="JoiuVAvioGvqHBmtf9we-27" value="{" style="text;html=1;strokeColor=none;fillColor=none;align=center;verticalAlign=middle;whiteSpace=wrap;rounded=0;" vertex="1" parent="1">
          <mxGeometry x="390" y="1260" width="30" height="30" as="geometry" />
        </mxCell>
        <mxCell id="JoiuVAvioGvqHBmtf9we-28" value="{" style="text;html=1;strokeColor=none;fillColor=none;align=center;verticalAlign=middle;whiteSpace=wrap;rounded=0;" vertex="1" parent="1">
          <mxGeometry x="70" y="210" width="30" height="30" as="geometry" />
        </mxCell>
        <mxCell id="JoiuVAvioGvqHBmtf9we-29" value="}" style="text;html=1;strokeColor=none;fillColor=none;align=center;verticalAlign=middle;whiteSpace=wrap;rounded=0;" vertex="1" parent="1">
          <mxGeometry x="100" y="840" width="30" height="30" as="geometry" />
        </mxCell>
        <mxCell id="JoiuVAvioGvqHBmtf9we-30" value="{" style="text;html=1;strokeColor=none;fillColor=none;align=center;verticalAlign=middle;whiteSpace=wrap;rounded=0;" vertex="1" parent="1">
          <mxGeometry x="670.04" y="220" width="30" height="30" as="geometry" />
        </mxCell>
        <mxCell id="JoiuVAvioGvqHBmtf9we-31" value="}" style="text;html=1;strokeColor=none;fillColor=none;align=center;verticalAlign=middle;whiteSpace=wrap;rounded=0;" vertex="1" parent="1">
          <mxGeometry x="827" y="240" width="30" height="30" as="geometry" />
        </mxCell>
      </root>
    </mxGraphModel>
  </diagram>
</mxfile>
